<svg width="1228" height="339" viewBox="0 0 1228 339" fill="none" xmlns="http://www.w3.org/2000/svg" id="svg1013256798_7770">
<path d="M1100.59 128.226C1074.74 136.719 1048.88 140.199 1048.88 140.199ZM864.502 202.692C885.868 196.089 898.358 189.952 910.52 183.322ZM944.733 120.226C922.6 130.802 887.813 144.336 887.813 144.336ZM650.05 199.076C645.338 200.336 623.48 206.72 623.48 206.72ZM680.208 120.254C666.704 126.254 641.832 136.336 641.832 136.336ZM812.156 189.459C810.485 190.062 791.283 197.569 789.667 198.089C776.601 202.5 765.973 204.911 755.427 206.72M810.074 120.254C794.57 129.103 769.726 136.336 769.726 136.336ZM544.125 189.459C515.089 199.103 498.627 204.802 487.369 206.747ZM542.07 120.281C540.783 120.802 522.129 129.35 520.896 129.815C510.049 133.98 501.667 136.363 501.667 136.363M107.907 260.391C107.907 260.391 135.272 243.87 182.167 252.117ZM362.872 231.213C337.836 238.336 317.182 238.336 317.182 238.336ZM364.187 102.363C364.187 102.363 371.062 135.815 345.998 169.24ZM181.318 102.363C181.318 102.363 188.193 135.815 163.129 169.24ZM295.926 102.308C294.584 124.117 290.091 149.24 282.476 176.993C257.769 266.747 214.27 328.802 183.317 328.802C158.089 328.802 146.557 305.514 144.256 274.528M127.657 290.857C116.289 309.871 98.5116 328.802 72.8179 328.802C36.6878 328.802 14.9933 272.007 66.6273 160.473C118.206 48.9658 182.03 9.73279 239.854 9.73279C261.001 9.73279 276.204 19.0205 285.462 35.952M294.912 67.048C301.404 58.8836 308.554 51.3767 316.333 44.6644C341.424 23.0205 373.281 9.73279 412.479 9.73279C457.895 9.73279 486.109 39.6781 483.095 91.322C480.082 142.966 431.955 214.72 362.845 231.24M359.804 255.103C354.326 284.007 339.15 328.829 297.871 328.829C279.189 328.829 263.302 320.939 253.222 301.542M491.203 28.226C513.062 16.226 535.579 9.73279 556.479 9.73279C579.187 9.73279 600.881 22.1164 600.881 44.8562C600.881 67.5959 586.418 96.5001 542.016 120.254M573.243 125.021C579.844 128.665 584.857 134.802 584.857 145.048C584.857 174.993 544.07 189.459 544.07 189.459M573.243 198.473C577.351 202.61 580.2 208.637 580.2 217.35C580.2 265.898 505.639 328.884 444.801 328.884C403.796 328.884 383.306 312.008 376.458 273.706M620.822 33.2123C643.448 18.4177 670.484 9.73279 702.232 9.73279H702.834C725.542 9.73279 746.305 22.1164 744.634 44.8562C742.964 67.5959 726.364 96.5001 680.208 120.254M713.408 126.528C718.502 130.281 721.899 136.089 721.214 145.048C718.996 174.993 677.141 189.459 677.141 189.459C650.351 199.103 650.022 199.103 650.022 199.103M647.256 225.131C641.777 263.021 626 328.884 582.611 328.884C566.668 328.884 553.52 323.925 544.097 312.227M763.261 26.089C783.86 15.4588 804.924 9.73279 824.537 9.73279C847.245 9.73279 868.939 22.1164 868.939 44.8562C868.939 67.5959 854.476 96.5001 810.074 120.254M843.848 126.61C849.135 130.363 852.915 136.171 852.915 145.048C852.915 174.993 812.128 189.459 812.128 189.459M841.301 198.473C845.41 202.61 848.258 208.637 848.258 217.35C848.258 265.898 773.697 328.884 712.86 328.884C680.181 328.884 660.514 318.172 650.433 294.418M804.404 315.46C815.059 324.336 829.221 328.884 847.492 328.884C920.793 328.884 991.026 234.227 991.026 170.993C991.026 148.445 985.136 135.541 977.549 128.254M944.678 120.281C989.081 96.5275 1003.54 67.6233 1003.54 44.8836C1003.54 22.1438 981.849 9.76019 959.141 9.76019C936.433 9.76019 910.466 18.5821 887.1 32.5822M1019.16 21.7328C1043.62 14.2533 1071.53 9.76019 1102.43 9.76019C1172.03 9.76019 1192 29.7328 1192 53.1302C1192 103.733 1100.54 128.254 1100.54 128.254M1100.46 151.788C1098.18 215.021 1080.43 328.884 1027.13 328.884C1004.31 328.884 986.451 307.542 980.671 262.583" fill="black"/>
<path fill-rule="evenodd" clip-rule="evenodd" d="M296.042 62.374L319.465 38.9507L467.44 44.6058L499.014 22.928L577.243 16.8016L603.162 38.9507L629.081 30.4681H742.183L778.941 22.928L856.698 16.8016L868.48 38.9507L902.881 27.1693L988.65 16.8016L1004.67 38.9507L1001.85 27.1693L1026.82 20.5717L1151.23 70.525L1099.87 130.375V169.018L988.65 299.556L973.57 236.879L809.572 321.705L790.722 303.797L649.816 295.786L634.265 287.775L603.162 321.705L543.783 315.579L529.646 295.786L376.016 275.522L359.993 253.844L289.305 315.579L255.374 303.797L229.666 274.808L208.72 311.337L128.135 288.717L101.744 210.96L201.179 67.6974L286.006 37.0657L296.042 62.374Z" fill="black"/>
<path d="M1100.59 128.226C1074.74 136.719 1048.88 140.199 1048.88 140.199M864.502 202.692C885.868 196.089 898.358 189.952 910.52 183.322M944.733 120.226C922.6 130.802 887.813 144.336 887.813 144.336M650.05 199.076C645.338 200.336 623.48 206.72 623.48 206.72M641.832 136.336C641.832 136.336 666.704 126.254 680.208 120.254C726.364 96.5001 742.964 67.5959 744.634 44.8562C746.305 22.1164 725.542 9.73279 702.834 9.73279H702.232C670.484 9.73279 643.448 18.4177 620.822 33.2123M812.156 189.459C810.485 190.062 791.283 197.569 789.667 198.089C776.601 202.5 765.973 204.911 755.427 206.72M769.726 136.336C769.726 136.336 794.57 129.103 810.074 120.254C854.476 96.5001 868.939 67.5959 868.939 44.8562C868.939 22.1164 847.245 9.73279 824.537 9.73279C804.924 9.73279 783.86 15.4588 763.261 26.089M544.125 189.459C515.089 199.103 498.627 204.802 487.369 206.747M542.07 120.281C540.783 120.802 522.129 129.35 520.896 129.815C510.049 133.98 501.667 136.363 501.667 136.363M107.907 260.391C107.907 260.391 135.272 243.87 182.167 252.117M362.872 231.213C337.836 238.336 317.182 238.336 317.182 238.336M364.187 102.363C364.187 102.363 371.062 135.815 345.998 169.24M181.318 102.363C181.318 102.363 188.193 135.815 163.129 169.24M295.926 102.308C294.584 124.117 290.091 149.24 282.476 176.993C257.769 266.747 214.27 328.802 183.317 328.802C158.089 328.802 146.557 305.514 144.256 274.528M127.657 290.857C116.289 309.871 98.5116 328.802 72.8179 328.802C36.6878 328.802 14.9933 272.007 66.6273 160.473C118.206 48.9658 182.03 9.73279 239.854 9.73279C261.001 9.73279 276.204 19.0205 285.462 35.952M294.912 67.048C301.404 58.8836 308.554 51.3767 316.333 44.6644C341.424 23.0205 373.281 9.73279 412.479 9.73279C457.895 9.73279 486.109 39.6781 483.095 91.322C480.082 142.966 431.955 214.72 362.845 231.24M359.804 255.103C354.326 284.007 339.15 328.829 297.871 328.829C279.189 328.829 263.302 320.939 253.222 301.542M491.203 28.226C513.062 16.226 535.579 9.73279 556.479 9.73279C579.187 9.73279 600.881 22.1164 600.881 44.8562C600.881 67.5959 586.418 96.5001 542.016 120.254M573.243 125.021C579.844 128.665 584.857 134.802 584.857 145.048C584.857 174.993 544.07 189.459 544.07 189.459M573.243 198.473C577.351 202.61 580.2 208.637 580.2 217.35C580.2 265.898 505.639 328.884 444.801 328.884C403.796 328.884 383.306 312.008 376.458 273.706M713.408 126.528C718.502 130.281 721.899 136.089 721.214 145.048C718.996 174.993 677.141 189.459 677.141 189.459C650.351 199.103 650.022 199.103 650.022 199.103M647.256 225.131C641.777 263.021 626 328.884 582.611 328.884C566.668 328.884 553.52 323.925 544.097 312.227M843.848 126.61C849.135 130.363 852.915 136.171 852.915 145.048C852.915 174.993 812.128 189.459 812.128 189.459M841.301 198.473C845.41 202.61 848.258 208.637 848.258 217.35C848.258 265.898 773.697 328.884 712.86 328.884C680.181 328.884 660.514 318.172 650.433 294.418M804.404 315.46C815.059 324.336 829.221 328.884 847.492 328.884C920.793 328.884 991.026 234.227 991.026 170.993C991.026 148.445 985.136 135.541 977.549 128.254M944.678 120.281C989.081 96.5275 1003.54 67.6233 1003.54 44.8836C1003.54 22.1438 981.849 9.76019 959.141 9.76019C936.433 9.76019 910.466 18.5821 887.1 32.5822M1019.16 21.7328C1043.62 14.2533 1071.53 9.76019 1102.43 9.76019C1172.03 9.76019 1192 29.7328 1192 53.1302C1192 103.733 1100.54 128.254 1100.54 128.254M1100.46 151.788C1098.18 215.021 1080.43 328.884 1027.13 328.884C1004.31 328.884 986.451 307.542 980.671 262.583" stroke="#8DFF1E" stroke-width="18" stroke-linecap="round" stroke-linejoin="round"/>
</svg>