<svg width="1226" height="559" viewBox="0 0 1226 559" fill="none" xmlns="http://www.w3.org/2000/svg" id="svg1939281944_10342">
<path d="M1099.59 172.493C1073.73 180.987 1047.87 184.466 1047.87 184.466ZM863.494 246.959C884.86 240.357 897.351 234.22 909.513 227.589ZM943.725 164.493C921.593 175.069 886.805 188.603 886.805 188.603ZM649.042 243.343C644.331 244.603 622.472 250.987 622.472 250.987ZM679.201 164.521C665.696 170.521 640.824 180.603 640.824 180.603ZM811.148 233.726C809.477 234.329 790.275 241.836 788.659 242.357C775.593 246.768 764.965 249.179 754.419 250.987M809.066 164.521C793.562 173.37 768.718 180.603 768.718 180.603ZM543.117 233.726C514.082 243.37 497.619 249.069 486.361 251.014ZM541.063 164.548C539.775 165.069 521.121 173.617 519.889 174.083C509.041 178.247 500.659 180.63 500.659 180.63M106.899 304.658C106.899 304.658 134.264 288.138 181.159 296.384ZM361.864 275.48C336.828 282.603 316.174 282.603 316.174 282.603ZM363.179 146.63C363.179 146.63 370.054 180.083 344.991 213.507ZM180.31 146.63C180.31 146.63 187.185 180.083 162.122 213.507ZM294.918 146.576C293.576 168.384 289.083 193.507 281.469 221.261C256.761 311.014 213.262 373.069 182.309 373.069C157.081 373.069 145.549 349.782 143.248 318.795M126.649 335.124C115.281 354.138 97.5038 373.069 71.81 373.069C35.68 373.069 13.9855 316.275 65.6194 204.74C117.199 93.233 181.022 54 238.847 54C259.993 54 275.196 63.2877 284.454 80.2192M293.904 111.315C300.396 103.151 307.546 95.6439 315.325 88.9316C340.416 67.2877 372.273 54 411.471 54C456.887 54 485.101 83.9453 482.088 135.589C479.075 187.233 430.947 258.987 361.837 275.507M358.796 299.37C353.318 328.275 338.143 373.097 296.863 373.097C278.181 373.097 262.294 365.206 252.214 345.809M490.196 72.4932C512.055 60.4932 534.571 54 555.471 54C578.179 54 599.873 66.3836 599.873 89.1234C599.873 111.863 585.41 140.767 541.008 164.521M572.235 169.288C578.836 172.932 583.849 179.069 583.849 189.315C583.849 219.261 543.062 233.726 543.062 233.726M572.235 242.74C576.344 246.877 579.192 252.905 579.192 261.617C579.192 310.165 504.631 373.151 443.794 373.151C402.788 373.151 382.299 356.275 375.451 317.973M619.815 77.4795C642.44 62.685 669.476 54 701.224 54H701.826C724.534 54 745.298 66.3836 743.627 89.1234C741.956 111.863 725.356 140.767 679.201 164.521M712.4 170.795C717.495 174.548 720.891 180.356 720.206 189.315C717.988 219.261 676.133 233.726 676.133 233.726C649.343 243.37 649.015 243.37 649.015 243.37M646.248 269.398C640.77 307.288 624.992 373.151 581.603 373.151C565.661 373.151 552.513 368.193 543.09 356.494M762.253 70.3562C782.852 59.726 803.916 54 823.529 54C846.237 54 867.932 66.3836 867.932 89.1234C867.932 111.863 853.469 140.767 809.066 164.521M842.841 170.877C848.127 174.63 851.907 180.439 851.907 189.315C851.907 219.261 811.121 233.726 811.121 233.726M840.293 242.74C844.402 246.877 847.251 252.905 847.251 261.617C847.251 310.165 772.69 373.151 711.852 373.151C679.173 373.151 659.506 362.439 649.425 338.686M803.396 359.727C814.052 368.604 828.213 373.151 846.484 373.151C919.785 373.151 990.018 278.494 990.018 215.261C990.018 192.713 984.129 179.809 976.541 172.521M943.671 164.548C988.073 140.795 1002.54 111.891 1002.54 89.1508C1002.54 66.411 980.841 54.0274 958.133 54.0274C935.426 54.0274 909.458 62.8493 886.093 76.8494M1018.15 66C1042.61 58.5206 1070.52 54.0274 1101.42 54.0274C1171.02 54.0274 1190.99 74.0001 1190.99 97.3974C1190.99 148 1099.53 172.521 1099.53 172.521M1099.45 196.055C1097.18 259.288 1079.43 373.151 1026.12 373.151C1003.3 373.151 985.443 351.809 979.664 306.85" fill="black"/>
<path fill-rule="evenodd" clip-rule="evenodd" d="M295.034 106.641L318.457 83.2179L466.432 88.873L498.006 67.1952L576.235 61.0688L602.154 83.2179L628.073 74.7353H741.175L777.933 67.1952L855.69 61.0688L867.472 83.2179L901.874 71.4365L987.642 61.0688L1003.67 83.2179L1000.84 71.4365L1025.81 64.8389L1150.23 114.792L1098.86 174.642V213.285L987.642 343.823L972.562 281.146L808.565 365.972L789.714 348.064L648.808 340.053L633.257 332.042L602.154 365.972L542.776 359.846L528.638 340.053L375.008 319.789L358.985 298.111L288.297 359.846L254.366 348.064L228.659 319.075L207.712 355.605L127.127 332.984L100.736 255.227L200.172 111.965L284.998 81.3329L295.034 106.641Z" fill="black"/>
<path d="M1099.59 172.493C1073.73 180.987 1047.87 184.466 1047.87 184.466M863.494 246.959C884.86 240.357 897.351 234.22 909.513 227.589M943.725 164.493C921.593 175.069 886.805 188.603 886.805 188.603M649.042 243.343C644.331 244.603 622.472 250.987 622.472 250.987M640.824 180.603C640.824 180.603 665.696 170.521 679.201 164.521C725.356 140.767 741.956 111.863 743.627 89.1234C745.298 66.3836 724.534 54 701.826 54H701.224C669.476 54 642.44 62.685 619.815 77.4795M811.148 233.726C809.477 234.329 790.275 241.836 788.659 242.357C775.593 246.768 764.965 249.179 754.419 250.987M768.718 180.603C768.718 180.603 793.562 173.37 809.066 164.521C853.469 140.767 867.932 111.863 867.932 89.1234C867.932 66.3836 846.237 54 823.529 54C803.916 54 782.852 59.726 762.253 70.3562M543.117 233.726C514.082 243.37 497.619 249.069 486.361 251.014M541.063 164.548C539.775 165.069 521.121 173.617 519.889 174.083C509.041 178.247 500.659 180.63 500.659 180.63M106.899 304.658C106.899 304.658 134.264 288.138 181.159 296.384M361.864 275.48C336.828 282.603 316.174 282.603 316.174 282.603M363.179 146.63C363.179 146.63 370.054 180.083 344.991 213.507M180.31 146.63C180.31 146.63 187.185 180.083 162.122 213.507M294.918 146.576C293.576 168.384 289.083 193.507 281.469 221.261C256.761 311.014 213.262 373.069 182.309 373.069C157.081 373.069 145.549 349.782 143.248 318.795M126.649 335.124C115.281 354.138 97.5038 373.069 71.81 373.069C35.68 373.069 13.9855 316.275 65.6194 204.74C117.199 93.233 181.022 54 238.847 54C259.993 54 275.196 63.2877 284.454 80.2192M293.904 111.315C300.396 103.151 307.546 95.6439 315.325 88.9316C340.416 67.2877 372.273 54 411.471 54C456.887 54 485.101 83.9453 482.088 135.589C479.075 187.233 430.947 258.987 361.837 275.507M358.796 299.37C353.318 328.275 338.143 373.097 296.863 373.097C278.181 373.097 262.294 365.206 252.214 345.809M490.196 72.4932C512.055 60.4932 534.571 54 555.471 54C578.179 54 599.873 66.3836 599.873 89.1234C599.873 111.863 585.41 140.767 541.008 164.521M572.235 169.288C578.836 172.932 583.849 179.069 583.849 189.315C583.849 219.261 543.062 233.726 543.062 233.726M572.235 242.74C576.344 246.877 579.192 252.905 579.192 261.617C579.192 310.165 504.631 373.151 443.794 373.151C402.788 373.151 382.299 356.275 375.451 317.973M712.4 170.795C717.495 174.548 720.891 180.356 720.206 189.315C717.988 219.261 676.133 233.726 676.133 233.726C649.343 243.37 649.015 243.37 649.015 243.37M646.248 269.398C640.77 307.288 624.992 373.151 581.603 373.151C565.661 373.151 552.513 368.193 543.09 356.494M842.841 170.877C848.127 174.63 851.907 180.439 851.907 189.315C851.907 219.261 811.121 233.726 811.121 233.726M840.293 242.74C844.402 246.877 847.251 252.905 847.251 261.617C847.251 310.165 772.69 373.151 711.852 373.151C679.173 373.151 659.506 362.439 649.425 338.686M803.396 359.727C814.052 368.604 828.213 373.151 846.484 373.151C919.785 373.151 990.018 278.494 990.018 215.261C990.018 192.713 984.129 179.809 976.541 172.521M943.671 164.548C988.073 140.795 1002.54 111.891 1002.54 89.1508C1002.54 66.411 980.841 54.0274 958.133 54.0274C935.426 54.0274 909.458 62.8493 886.093 76.8494M1018.15 66C1042.61 58.5206 1070.52 54.0274 1101.42 54.0274C1171.02 54.0274 1190.99 74.0001 1190.99 97.3974C1190.99 148 1099.53 172.521 1099.53 172.521M1099.45 196.055C1097.18 259.288 1079.43 373.151 1026.12 373.151C1003.3 373.151 985.443 351.809 979.664 306.85" stroke="#8DFF1E" stroke-width="18" stroke-linecap="round" stroke-linejoin="round"/>
<path d="M249.992 504.215V442.224H263.427V466.427H290.009V442.224H303.444V504.215H290.009V477.907H263.427V504.215H249.992Z" fill="#8DFF1E"/>
<path d="M367.6 505.267C348.407 505.267 334.684 491.013 334.684 473.219C334.684 455.521 348.407 441.267 367.6 441.267C386.793 441.267 400.515 455.521 400.515 473.219C400.515 491.013 386.793 505.267 367.6 505.267ZM367.696 493.118C378.54 493.118 386.505 484.317 386.505 473.219C386.505 462.218 378.54 453.417 367.696 453.417C356.852 453.417 348.695 462.218 348.695 473.219C348.695 484.317 356.756 493.118 367.696 493.118Z" fill="#8DFF1E"/>
<path d="M431.663 504.215V442.224H444.522L465.922 471.689C469.377 476.376 473.311 483.073 473.311 483.073V442.224H486.746V504.215H473.791L453.063 475.898C448.937 470.349 445.098 463.749 445.098 463.749V504.215H431.663Z" fill="#8DFF1E"/>
<path d="M550.864 505.267C531.671 505.267 517.949 491.013 517.949 473.219C517.949 455.521 531.575 441.267 550.768 441.267C559.501 441.267 567.178 444.328 572.84 449.207L564.491 458.296C560.172 454.469 555.758 453.417 551.056 453.417C540.212 453.417 531.959 462.218 531.959 473.219C531.959 484.317 540.02 493.118 551.056 493.118C557.006 493.118 561.996 490.439 565.355 486.9V477.811H554.799V468.053H577.638V492.161C572.168 500.293 562.092 505.267 550.864 505.267Z" fill="#8DFF1E"/>
<path d="M652.908 504.215V442.224H666.343V476.663C666.726 475.994 669.797 471.402 672.004 468.532L691.773 442.224H707.415L685.727 470.541L710.102 504.215H694.364L677.474 480.394L666.343 493.979V504.215H652.908Z" fill="#8DFF1E"/>
<path d="M766.954 505.267C747.762 505.267 734.039 491.013 734.039 473.219C734.039 455.521 747.762 441.267 766.954 441.267C786.147 441.267 799.87 455.521 799.87 473.219C799.87 491.013 786.147 505.267 766.954 505.267ZM767.05 493.118C777.894 493.118 785.859 484.317 785.859 473.219C785.859 462.218 777.894 453.417 767.05 453.417C756.206 453.417 748.049 462.218 748.049 473.219C748.049 484.317 756.11 493.118 767.05 493.118Z" fill="#8DFF1E"/>
<path d="M831.017 504.215V442.224H843.877L865.276 471.689C868.731 476.376 872.666 483.073 872.666 483.073V442.224H886.101V504.215H873.145L852.417 475.898C848.291 470.349 844.452 463.749 844.452 463.749V504.215H831.017Z" fill="#8DFF1E"/>
<path d="M950.218 505.267C931.026 505.267 917.303 491.013 917.303 473.219C917.303 455.521 930.93 441.267 950.122 441.267C958.855 441.267 966.532 444.328 972.194 449.207L963.845 458.296C959.527 454.469 955.113 453.417 950.41 453.417C939.566 453.417 931.314 462.218 931.314 473.219C931.314 484.317 939.375 493.118 950.41 493.118C956.36 493.118 961.35 490.439 964.709 486.9V477.811H954.153V468.053H976.992V492.161C971.522 500.293 961.446 505.267 950.218 505.267Z" fill="#8DFF1E"/>
</svg>