<svg width="131" height="131" viewBox="0 0 131 131" fill="none" xmlns="http://www.w3.org/2000/svg" id="svg-145634647_19770">
<circle cx="65.499" cy="65.499" r="65.499" fill="#FF57CF"/>
<g clip-path="url(#svg-145634647_19770_clip0_807_6)">
<path d="M69.7325 15.8497L70.7587 7.88842L68.371 7.57702C67.3161 7.44181 66.6619 6.61413 66.7968 5.5611C66.9318 4.51217 67.774 3.87707 68.8289 4.01638L77.1901 5.10219C78.245 5.23741 78.8991 6.06508 78.7642 7.11811C78.6293 8.16704 77.787 8.80214 76.7322 8.66283L74.3444 8.35553L73.3141 16.3168C73.171 17.4231 72.3655 18.0786 71.2821 17.9352C70.1986 17.7959 69.5853 16.956 69.7284 15.8497H69.7325Z" fill="black"/>
<path d="M80.4277 7.58928C80.7916 6.59771 81.7525 6.16748 82.7542 6.53625L89.6312 9.07664C90.6288 9.4454 91.0827 10.396 90.7188 11.3917C90.3549 12.3832 89.3941 12.8135 88.3924 12.4447L86.6506 11.8014L84.5532 17.5009L86.2949 18.1442C87.2925 18.5129 87.7464 19.4635 87.3825 20.4592C87.0186 21.4508 86.0578 21.881 85.0561 21.5122L78.179 18.9719C77.1814 18.6031 76.7276 17.6525 77.0914 16.6568C77.4553 15.6653 78.4162 15.235 79.4179 15.6038L81.1596 16.2471L83.2571 10.5476L81.5153 9.90431C80.5177 9.53554 80.0639 8.58495 80.4277 7.58928Z" fill="black"/>
<path d="M89.8196 16.2963C92.0479 12.8667 95.7031 11.8793 98.741 13.8624C100.532 15.0302 101.525 16.4397 101.709 18.4146C101.762 18.9882 101.591 19.4881 101.329 19.8897C100.81 20.6928 99.7222 20.9468 98.9291 20.4305C98.4998 20.1478 98.144 19.6315 98.0091 19.062C97.772 18.0622 97.5062 17.4271 96.7907 16.96C95.5519 16.1528 93.945 16.7183 92.9106 18.3122C91.8844 19.8938 92.0275 21.5778 93.2663 22.385C93.945 22.8275 94.681 22.8357 95.6868 22.6595C96.3778 22.5407 96.9583 22.7087 97.3345 22.9545C98.1277 23.4708 98.3158 24.5607 97.7965 25.3638C97.5553 25.7326 97.1873 26.0972 96.5863 26.298C94.7382 26.9126 93.0128 26.5889 91.2261 25.4253C88.1883 23.4421 87.5995 19.7094 89.8196 16.2963Z" fill="black"/>
<path d="M96.894 26.9454L104.029 19.9922C104.826 19.2178 105.864 19.2055 106.625 19.9922C107.369 20.7584 107.328 21.7991 106.531 22.5735L104.213 24.8312L110.305 24.7329C110.771 24.7247 111.245 24.8681 111.744 25.3843C112.23 25.8842 112.247 26.8963 111.756 27.3757C111.274 27.8428 110.754 28.019 109.72 28.0108L106.134 27.9985L104.908 33.4521C104.699 34.3863 104.597 34.7797 104.221 35.1484C103.669 35.6893 102.655 35.5705 102.05 34.9436C101.698 34.5789 101.326 33.8414 101.477 33.1899L102.667 27.9862L100.979 27.9739L99.3922 29.5186C98.5949 30.293 97.5564 30.3053 96.8122 29.5391C96.0518 28.7524 96.0926 27.7117 96.8858 26.9373L96.894 26.9454Z" fill="black"/>
<path d="M104.805 34.9598L112.909 29.9938C113.857 29.4119 114.867 29.625 115.439 30.5592L118.866 36.1726C119.422 37.0823 119.185 38.1025 118.281 38.6557C117.382 39.2088 116.363 38.9548 115.807 38.0452L113.322 33.9682L112.185 34.6648L114.495 38.4508C115.006 39.2908 114.785 40.27 113.955 40.7781C113.117 41.2903 112.16 41.0158 111.658 40.1881L109.347 36.4021L108.149 37.1355L110.648 41.2288C111.204 42.1385 110.971 43.1669 110.067 43.7201C109.168 44.2732 108.145 44.011 107.589 43.1013L104.155 37.4715C103.587 36.5373 103.856 35.5376 104.805 34.9557V34.9598Z" fill="black"/>
<path d="M111.252 47.5595L118.841 45.0027L118.072 42.7164C117.733 41.7043 118.191 40.7537 119.188 40.4177C120.19 40.0817 121.126 40.5611 121.466 41.5732L124.152 49.5795C124.491 50.5916 124.033 51.5422 123.036 51.8781C122.034 52.2141 121.098 51.7347 120.758 50.7227L119.99 48.4363L112.401 50.9931C111.346 51.3496 110.406 50.9071 110.058 49.8704C109.711 48.8338 110.197 47.9119 111.248 47.5554L111.252 47.5595Z" fill="black"/>
<path d="M113.195 55.4797C113.636 54.7134 114.205 54.3037 114.843 54.2422C115.783 54.148 116.625 54.8118 116.719 55.7542C116.76 56.1475 116.646 56.5778 116.453 56.967C115.877 58.1348 115.538 59.3353 115.636 60.3146C115.734 61.3143 116.09 61.72 116.556 61.6749C116.969 61.6339 117.128 61.3225 117.181 60.7407L117.451 58.0036C117.688 55.5944 118.853 54.2914 120.971 54.0783C123.641 53.8079 125.632 55.7173 125.959 58.9788C126.156 60.9292 125.6 62.4657 125.068 63.445C124.618 64.285 124.001 64.5882 123.371 64.6537C122.439 64.748 121.626 64.2645 121.527 63.277C121.474 62.7648 121.617 62.3141 121.899 61.6503C122.182 60.9825 122.676 59.8966 122.574 58.9092C122.513 58.2864 122.235 57.8234 121.732 57.8725C121.258 57.9217 121.135 58.2577 121.045 58.9583L120.714 61.5643C120.46 63.5515 119.728 65.1864 117.288 65.4322C114.52 65.7108 112.577 63.6744 112.242 60.331C112.034 58.2618 112.463 56.7457 113.187 55.4797H113.195Z" fill="black"/>
<path d="M113.371 77.1631L122.521 80.4615C123.568 80.8385 124.034 81.7686 123.662 82.8012C123.29 83.8337 122.341 84.2516 121.295 83.8747L113.759 81.1581L112.014 86.0258C111.65 87.0379 110.705 87.5009 109.712 87.1403C108.718 86.7838 108.281 85.825 108.645 84.8089L111.004 78.2366C111.372 77.2082 112.324 76.7862 113.371 77.1631Z" fill="black"/>
<path d="M117.843 92.262C118.73 92.8315 118.943 93.8641 118.371 94.7655L114.417 100.948C113.84 101.846 112.818 102.083 111.927 101.514C111.04 100.944 110.827 99.9118 111.4 99.0104L112.401 97.4452L107.299 94.1673L106.297 95.7325C105.72 96.6298 104.698 96.8675 103.807 96.2979C102.92 95.7284 102.707 94.6958 103.28 93.7944L107.233 87.6114C107.81 86.7141 108.832 86.4765 109.723 87.046C110.61 87.6155 110.823 88.6481 110.251 89.5495L109.249 91.1147L114.351 94.3926L115.353 92.8274C115.93 91.9301 116.952 91.6924 117.843 92.262Z" fill="black"/>
<path d="M103.905 96.0849L110.741 103.03C111.612 103.915 111.648 104.989 110.904 105.726C110.132 106.488 109.387 106.332 108.333 105.902L103.451 103.915L105.364 108.836C105.843 110.057 105.851 110.721 105.152 111.413C104.408 112.151 103.336 112.098 102.465 111.212L95.6293 104.267C94.8361 103.46 94.8034 102.383 95.5107 101.682C96.2426 100.957 97.3342 101.055 98.0947 101.829L101.19 104.976L100.397 103.136C99.7424 101.62 99.7465 101.178 100.258 100.674C100.769 100.17 101.333 100.231 102.711 100.846L104.538 101.666L101.443 98.5187C100.687 97.7525 100.593 96.6585 101.325 95.9333C102.036 95.2285 103.116 95.2736 103.909 96.0808L103.905 96.0849Z" fill="black"/>
<path d="M100.945 112.38C101.501 113.278 101.251 114.302 100.348 114.867L94.1249 118.744C93.2213 119.309 92.191 119.08 91.6349 118.182C91.0789 117.285 91.3283 116.261 92.2319 115.695L93.806 114.716L90.6046 109.557L89.0305 110.541C88.1269 111.106 87.0966 110.877 86.5405 109.979C85.9845 109.082 86.2339 108.058 87.1375 107.492L93.3603 103.616C94.2639 103.051 95.2943 103.28 95.8503 104.177C96.4064 105.075 96.157 106.099 95.2534 106.664L93.6793 107.648L96.8806 112.806L98.4547 111.827C99.3583 111.262 100.389 111.491 100.945 112.389V112.38Z" fill="black"/>
<path d="M82.9188 111.081L85.5314 118.67L87.8088 117.883C88.8146 117.535 89.7672 117.986 90.1107 118.985C90.4541 119.985 89.9839 120.928 88.974 121.276L81.0012 124.029C79.9954 124.378 79.0428 123.927 78.6993 122.927C78.3559 121.927 78.8261 120.985 79.836 120.637L82.1133 119.85L79.5007 112.262C79.1368 111.208 79.5702 110.262 80.6046 109.906C81.6391 109.549 82.5631 110.028 82.9229 111.081H82.9188Z" fill="black"/>
<path d="M75.4477 113.761L76.4658 123.218C76.5844 124.324 75.9629 125.152 74.8753 125.267L68.3499 125.971C67.2909 126.086 66.4732 125.435 66.3587 124.382C66.2443 123.329 66.9066 122.517 67.9656 122.403L72.7043 121.89L72.5612 120.563L68.1618 121.038C67.1846 121.145 66.3996 120.526 66.2933 119.555C66.187 118.576 66.8453 117.83 67.8061 117.727L72.2055 117.252L72.0542 115.851L67.2991 116.367C66.2402 116.482 65.4143 115.83 65.2998 114.777C65.1853 113.724 65.8558 112.913 66.9148 112.798L73.4607 112.089C74.5482 111.971 75.3291 112.647 75.4477 113.753V113.761Z" fill="black"/>
<path d="M64.8309 114.876L63.7515 124.332C63.6248 125.439 62.848 126.111 61.7686 125.988L58.0438 125.562C54.7321 125.185 52.7205 122.23 53.162 118.334C53.6036 114.437 56.2285 112.011 59.5444 112.393L63.2691 112.819C64.3444 112.942 64.9536 113.769 64.8268 114.88L64.8309 114.876ZM59.1478 115.912C58.097 115.793 57.1444 117.018 56.944 118.764C56.7437 120.509 57.3978 121.919 58.4486 122.042L60.3907 122.263L61.0899 116.133L59.1478 115.912Z" fill="black"/>
<path d="M26.0982 95.8842L18.0723 100.973C17.1401 101.563 16.1425 101.379 15.5578 100.486L13.2273 96.7897C11.7186 94.401 12.2215 92.1023 14.2576 90.8116C15.1735 90.2298 16.1629 90.1806 17.1401 90.5945C17.1646 89.5128 17.6266 88.6441 18.5016 88.0869C20.5582 86.7839 22.8764 87.2838 24.4055 89.7135L26.7115 93.3684L26.732 93.4012C27.2839 94.3149 27.0263 95.2942 26.0941 95.8842H26.0982ZM17.6839 93.9543C17.4794 93.6265 16.9847 93.5364 16.5513 93.8109C16.0852 94.1059 15.9503 94.5812 16.1629 94.9172L17.5162 97.0643L19.0372 96.1014L17.6839 93.9543ZM21.4372 91.5328C21.2328 91.205 20.7667 91.1066 20.2638 91.4262C19.7731 91.7376 19.6505 92.2088 19.8549 92.5366L21.2287 94.7124L22.811 93.7085L21.4372 91.5287V91.5328Z" fill="black"/>
<path d="M17.1702 88.0131L11.2131 90.1233C10.1664 90.4962 9.20563 90.0454 8.84992 89.0293C8.49012 88.0131 8.9644 87.0953 10.0152 86.7224L15.6615 84.7229C16.8922 84.2886 17.4728 83.1741 17.0721 82.0432C16.6755 80.9164 15.5225 80.4166 14.2919 80.8509L8.64549 82.8504C7.5988 83.2233 6.65025 82.8053 6.29454 81.7892C5.93474 80.773 6.39675 79.8183 7.44752 79.4496L13.4046 77.3394C16.5897 76.2085 19.3822 77.6016 20.5188 80.8222C21.6554 84.0428 20.3594 86.8822 17.1743 88.0131H17.1702Z" fill="black"/>
<path d="M6.74422 77.8843C5.86925 77.9867 5.11286 77.3516 5.00247 76.401C4.89208 75.4586 5.47266 74.9382 6.04506 74.4547L9.50812 71.5333L5.47266 69.4805C4.80622 69.1404 4.12342 68.7676 4.01711 67.8252C3.90672 66.8746 4.49957 66.0838 5.37453 65.9813C5.70162 65.9445 6.03689 66.0264 6.26176 66.1452L12.3824 69.3617L16.0417 68.9397C17.1456 68.8126 17.9797 69.4559 18.1024 70.5335C18.225 71.6112 17.5627 72.4306 16.4587 72.5577L12.7994 72.9797L7.5742 77.5114C7.38204 77.6835 7.07539 77.8392 6.7483 77.8761L6.74422 77.8843Z" fill="black"/>
<path d="M16.8468 54.0209L7.58201 50.8413C6.4004 50.4357 5.87706 49.5547 6.24094 48.4853C6.48626 47.7642 6.90739 47.3831 8.24436 47.1086L14.549 45.8179L9.69173 44.1503C8.64096 43.7897 8.1585 42.876 8.50603 41.8557C8.85356 40.8355 9.79803 40.4094 10.8488 40.7699L20.1054 43.9454C21.287 44.351 21.8185 45.2443 21.4751 46.244C21.2052 47.0266 20.6451 47.3421 19.6311 47.5757L13.3183 49.0303L18.0039 50.6365C19.0546 50.997 19.5371 51.9107 19.1896 52.931C18.8379 53.9594 17.8976 54.3774 16.8468 54.0168V54.0209Z" fill="black"/>
<path d="M15.8609 41.569C12.4224 39.4384 11.2858 35.8613 13.1706 32.8088C15.0473 29.7726 18.7475 29.199 22.186 31.3296C25.6164 33.4562 26.7612 37.0373 24.8886 40.0735C23.0037 43.126 19.2913 43.6956 15.865 41.5649L15.8609 41.569ZM21.7771 38.1477C22.4927 36.9881 21.8548 35.4352 20.2603 34.4477C18.6657 33.4603 16.9935 33.5791 16.278 34.7387C15.5584 35.9064 16.1962 37.4593 17.7908 38.4468C19.3853 39.4343 21.0576 39.3154 21.7771 38.1477Z" fill="black"/>
<path d="M25.0814 33.5299L18.6336 28.2607C18.4374 28.105 18.282 27.9534 18.1839 27.855C17.5542 27.2363 17.5706 26.2447 18.2248 25.5851C18.7645 25.0319 19.5372 24.9418 20.1137 25.4457L26.6514 31.2149L21.6633 25.1794C20.8415 24.1919 20.8456 22.9136 21.6183 22.1269C22.3911 21.3402 23.6626 21.3156 24.6643 22.1187L30.7727 27.0109L24.9056 20.5575C24.3945 19.988 24.4722 19.2136 25.0119 18.6646C25.662 18.0008 26.6473 17.968 27.277 18.5867C27.3751 18.685 27.5304 18.8366 27.6899 19.0333L33.0582 25.4048C34.383 26.9823 34.4443 28.613 33.4835 29.5923C32.5063 30.5921 30.83 30.5511 29.1863 29.117L25.0895 25.5482L28.7243 29.5923C30.188 31.2149 30.2535 32.8907 29.2763 33.8905C28.3155 34.8698 26.6882 34.837 25.0895 33.534L25.0814 33.5299Z" fill="black"/>
</g>
<path fill-rule="evenodd" clip-rule="evenodd" d="M51.1033 12.9121L54.8803 14.9266C55.0807 15.0334 55.3154 15.0563 55.5327 14.9902C55.75 14.924 55.9321 14.7743 56.0389 14.5738C56.1458 14.3734 56.1687 14.1388 56.1025 13.9215C56.0364 13.7042 55.8866 13.5221 55.6862 13.4152L51.9082 11.4016L53.9227 7.62459C53.9756 7.52537 54.0084 7.4167 54.0193 7.30479C54.0302 7.19288 54.0189 7.07993 53.9861 6.97238C53.9534 6.86482 53.8997 6.76478 53.8283 6.67795C53.7568 6.59113 53.669 6.51922 53.5698 6.46634C53.4706 6.41347 53.3619 6.38065 53.25 6.36977C53.1381 6.35888 53.0251 6.37015 52.9176 6.40292C52.81 6.43569 52.71 6.48933 52.6232 6.56076C52.5363 6.6322 52.4644 6.72003 52.4115 6.81926L50.3982 10.596L46.6213 8.58204C46.5219 8.52678 46.4126 8.49185 46.2996 8.47929C46.1866 8.46673 46.0723 8.47681 45.9632 8.50892C45.8542 8.54103 45.7526 8.59453 45.6645 8.66631C45.5763 8.73809 45.5033 8.82671 45.4498 8.92699C45.3963 9.02727 45.3633 9.13721 45.3527 9.2504C45.3421 9.36358 45.3541 9.47774 45.3881 9.58621C45.4221 9.69468 45.4774 9.7953 45.5507 9.88219C45.624 9.96907 45.7139 10.0405 45.8151 10.0923L49.5932 12.1064L47.5787 15.8835C47.4719 16.0839 47.449 16.3185 47.5151 16.5358C47.5813 16.7531 47.731 16.9352 47.9314 17.0421C48.1319 17.1489 48.3665 17.1718 48.5838 17.1057C48.8011 17.0395 48.9832 16.8898 49.09 16.6894L51.1031 12.9115L51.1033 12.9121Z" fill="black"/>
<path fill-rule="evenodd" clip-rule="evenodd" d="M51.1033 12.9121L54.8803 14.9266C55.0807 15.0334 55.3154 15.0563 55.5327 14.9902C55.75 14.924 55.9321 14.7743 56.0389 14.5738C56.1458 14.3734 56.1687 14.1388 56.1025 13.9215C56.0364 13.7042 55.8866 13.5221 55.6862 13.4152L51.9082 11.4016L53.9227 7.62459C53.9756 7.52537 54.0084 7.4167 54.0193 7.30479C54.0302 7.19288 54.0189 7.07993 53.9861 6.97238C53.9534 6.86482 53.8997 6.76478 53.8283 6.67795C53.7568 6.59113 53.669 6.51922 53.5698 6.46634C53.4706 6.41347 53.3619 6.38065 53.25 6.36977C53.1381 6.35888 53.0251 6.37015 52.9176 6.40292C52.81 6.43569 52.71 6.48933 52.6232 6.56076C52.5363 6.6322 52.4644 6.72003 52.4115 6.81926L50.3982 10.596L46.6213 8.58204C46.5219 8.52678 46.4126 8.49185 46.2996 8.47929C46.1866 8.46673 46.0723 8.47681 45.9632 8.50892C45.8542 8.54103 45.7526 8.59453 45.6645 8.66631C45.5763 8.73809 45.5033 8.82671 45.4498 8.92699C45.3963 9.02727 45.3633 9.13721 45.3527 9.2504C45.3421 9.36358 45.3541 9.47774 45.3881 9.58621C45.4221 9.69468 45.4774 9.7953 45.5507 9.88219C45.624 9.96907 45.7139 10.0405 45.8151 10.0923L49.5932 12.1064L47.5787 15.8835C47.4719 16.0839 47.449 16.3185 47.5151 16.5358C47.5813 16.7531 47.731 16.9352 47.9314 17.0421C48.1319 17.1489 48.3665 17.1718 48.5838 17.1057C48.8011 17.0395 48.9832 16.8898 49.09 16.6894L51.1031 12.9115L51.1033 12.9121Z" fill="black"/>
<path fill-rule="evenodd" clip-rule="evenodd" d="M51.1033 12.9121L54.8803 14.9266C55.0807 15.0334 55.3154 15.0563 55.5327 14.9902C55.75 14.924 55.9321 14.7743 56.0389 14.5738C56.1458 14.3734 56.1687 14.1388 56.1025 13.9215C56.0364 13.7042 55.8866 13.5221 55.6862 13.4152L51.9082 11.4016L53.9227 7.62459C53.9756 7.52537 54.0084 7.4167 54.0193 7.30479C54.0302 7.19288 54.0189 7.07993 53.9861 6.97238C53.9534 6.86482 53.8997 6.76478 53.8283 6.67795C53.7568 6.59113 53.669 6.51922 53.5698 6.46634C53.4706 6.41347 53.3619 6.38065 53.25 6.36977C53.1381 6.35888 53.0251 6.37015 52.9176 6.40292C52.81 6.43569 52.71 6.48933 52.6232 6.56076C52.5363 6.6322 52.4644 6.72003 52.4115 6.81926L50.3982 10.596L46.6213 8.58204C46.5219 8.52678 46.4126 8.49185 46.2996 8.47929C46.1866 8.46673 46.0723 8.47681 45.9632 8.50892C45.8542 8.54103 45.7526 8.59453 45.6645 8.66631C45.5763 8.73809 45.5033 8.82671 45.4498 8.92699C45.3963 9.02727 45.3633 9.13721 45.3527 9.2504C45.3421 9.36358 45.3541 9.47774 45.3881 9.58621C45.4221 9.69468 45.4774 9.7953 45.5507 9.88219C45.624 9.96907 45.7139 10.0405 45.8151 10.0923L49.5932 12.1064L47.5787 15.8835C47.4719 16.0839 47.449 16.3185 47.5151 16.5358C47.5813 16.7531 47.731 16.9352 47.9314 17.0421C48.1319 17.1489 48.3665 17.1718 48.5838 17.1057C48.8011 17.0395 48.9832 16.8898 49.09 16.6894L51.1031 12.9115L51.1033 12.9121Z" fill="black"/>
<path fill-rule="evenodd" clip-rule="evenodd" d="M37.571 110.543L36.9526 106.307C36.9197 106.082 36.799 105.88 36.6168 105.744C36.4347 105.609 36.2061 105.551 35.9814 105.584C35.7566 105.616 35.5542 105.737 35.4185 105.919C35.2828 106.101 35.225 106.33 35.2578 106.555L35.8775 110.791L31.6418 111.409C31.5305 111.426 31.4235 111.464 31.327 111.521C31.2304 111.579 31.1462 111.655 31.079 111.745C31.0119 111.835 30.9631 111.938 30.9356 112.047C30.9081 112.156 30.9023 112.269 30.9186 112.38C30.9349 112.492 30.9729 112.599 31.0305 112.695C31.0881 112.792 31.1642 112.876 31.2544 112.943C31.3445 113.01 31.4471 113.059 31.5561 113.087C31.6651 113.114 31.7785 113.12 31.8897 113.104L36.1246 112.484L36.7434 116.72C36.7578 116.832 36.7945 116.941 36.8514 117.04C36.9083 117.138 36.9843 117.224 37.0748 117.293C37.1653 117.362 37.2686 117.412 37.3787 117.44C37.4888 117.468 37.6034 117.475 37.7159 117.458C37.8284 117.442 37.9365 117.403 38.0339 117.345C38.1313 117.286 38.2161 117.209 38.2832 117.117C38.3504 117.025 38.3986 116.921 38.4251 116.81C38.4516 116.7 38.4558 116.585 38.4374 116.473L37.8181 112.237L42.0538 111.618C42.2786 111.585 42.4811 111.465 42.6168 111.282C42.7525 111.1 42.8103 110.872 42.7774 110.647C42.7446 110.422 42.6238 110.22 42.4417 110.084C42.2595 109.948 42.031 109.891 41.8062 109.923L37.5707 110.543L37.571 110.543Z" fill="black"/>
<path fill-rule="evenodd" clip-rule="evenodd" d="M37.571 110.543L36.9526 106.307C36.9197 106.082 36.799 105.88 36.6168 105.744C36.4347 105.609 36.2061 105.551 35.9814 105.584C35.7566 105.616 35.5542 105.737 35.4185 105.919C35.2828 106.101 35.225 106.33 35.2578 106.555L35.8775 110.791L31.6418 111.409C31.5305 111.426 31.4235 111.464 31.327 111.521C31.2304 111.579 31.1462 111.655 31.079 111.745C31.0119 111.835 30.9631 111.938 30.9356 112.047C30.9081 112.156 30.9023 112.269 30.9186 112.38C30.9349 112.492 30.9729 112.599 31.0305 112.695C31.0881 112.792 31.1642 112.876 31.2544 112.943C31.3445 113.01 31.4471 113.059 31.5561 113.087C31.6651 113.114 31.7785 113.12 31.8897 113.104L36.1246 112.484L36.7434 116.72C36.7578 116.832 36.7945 116.941 36.8514 117.04C36.9083 117.138 36.9843 117.224 37.0748 117.293C37.1653 117.362 37.2686 117.412 37.3787 117.44C37.4888 117.468 37.6034 117.475 37.7159 117.458C37.8284 117.442 37.9365 117.403 38.0339 117.345C38.1313 117.286 38.2161 117.209 38.2832 117.117C38.3504 117.025 38.3986 116.921 38.4251 116.81C38.4516 116.7 38.4558 116.585 38.4374 116.473L37.8181 112.237L42.0538 111.618C42.2786 111.585 42.4811 111.465 42.6168 111.282C42.7525 111.1 42.8103 110.872 42.7774 110.647C42.7446 110.422 42.6238 110.22 42.4417 110.084C42.2595 109.948 42.031 109.891 41.8062 109.923L37.5707 110.543L37.571 110.543Z" fill="black"/>
<path fill-rule="evenodd" clip-rule="evenodd" d="M37.571 110.543L36.9526 106.307C36.9197 106.082 36.799 105.88 36.6168 105.744C36.4347 105.609 36.2061 105.551 35.9814 105.584C35.7566 105.616 35.5542 105.737 35.4185 105.919C35.2828 106.101 35.225 106.33 35.2578 106.555L35.8775 110.791L31.6418 111.409C31.5305 111.426 31.4235 111.464 31.327 111.521C31.2304 111.579 31.1462 111.655 31.079 111.745C31.0119 111.835 30.9631 111.938 30.9356 112.047C30.9081 112.156 30.9023 112.269 30.9186 112.38C30.9349 112.492 30.9729 112.599 31.0305 112.695C31.0881 112.792 31.1642 112.876 31.2544 112.943C31.3445 113.01 31.4471 113.059 31.5561 113.087C31.6651 113.114 31.7785 113.12 31.8897 113.104L36.1246 112.484L36.7434 116.72C36.7578 116.832 36.7945 116.941 36.8514 117.04C36.9083 117.138 36.9843 117.224 37.0748 117.293C37.1653 117.362 37.2686 117.412 37.3787 117.44C37.4888 117.468 37.6034 117.475 37.7159 117.458C37.8284 117.442 37.9365 117.403 38.0339 117.345C38.1313 117.286 38.2161 117.209 38.2832 117.117C38.3504 117.025 38.3986 116.921 38.4251 116.81C38.4516 116.7 38.4558 116.585 38.4374 116.473L37.8181 112.237L42.0538 111.618C42.2786 111.585 42.4811 111.465 42.6168 111.282C42.7525 111.1 42.8103 110.872 42.7774 110.647C42.7446 110.422 42.6238 110.22 42.4417 110.084C42.2595 109.948 42.031 109.891 41.8062 109.923L37.5707 110.543L37.571 110.543Z" fill="black"/>
<defs>
<clipPath id="svg-145634647_19770_clip0_807_6">
<rect width="122" height="122" fill="white" transform="translate(4 4)"/>
</clipPath>
</defs>
</svg>