<svg width="89" height="90" viewBox="0 0 89 90" fill="none" xmlns="http://www.w3.org/2000/svg" id="svg-1280080941_9348">
<ellipse cx="44.1944" cy="44.986" rx="44.1944" ry="43.7033" fill="#FF57CF"/>
<mask id="svg-1280080941_9348_mask0_496_37" style="mask-type:alpha" maskUnits="userSpaceOnUse" x="0" y="0" width="89" height="90">
<circle cx="44.2152" cy="44.9859" r="44.098" fill="black"/>
</mask>
<g mask="url(#svg-1280080941_9348_mask0_496_37)">
<path d="M22.9988 62.043L22.8982 62.912C22.5723 65.7245 22.5401 68.565 22.8016 71.3855L22.8982 72.4195" stroke="black" stroke-width="2" stroke-linecap="round" stroke-linejoin="round"/>
<path d="M23.2805 10.5463C25.4572 9.51225 27.988 9.54444 30.1366 10.6348C34.5584 12.8799 39.7969 12.8437 44.1866 10.5342L47.341 8.87654C50.942 6.98148 54.8729 5.79858 58.9246 5.38818C62.7429 5.00193 66.6014 5.30771 70.311 6.29749C73.1275 7.04586 75.5858 8.77998 77.2395 11.178C78.2172 12.5983 79.3719 13.8898 80.6755 15.0164L85.1335 18.8749C87.27 20.7217 88.0546 23.691 87.1091 26.3505L85.9946 29.5049C85.3146 31.4282 84.8358 33.4158 84.5662 35.4356L84.0472 39.3383C83.8138 41.0926 82.993 42.7181 81.7176 43.9452L80.2732 45.3373C79.2512 46.3231 77.8832 46.8743 76.4629 46.8743C75.2036 46.8743 73.9804 47.3088 73.0027 48.1015C72.2986 48.6728 71.6951 49.3568 71.2123 50.1213L70.1903 51.7427C68.8143 53.9235 68.082 56.4462 68.082 59.0252V66.3802C68.082 68.1465 67.6314 69.8886 66.7744 71.4337L64.2195 76.0446C62.5135 79.1225 59.3672 81.1343 55.8547 81.3918L50.7448 81.766C47.6146 81.9953 44.5165 82.5264 41.4908 83.3552L41.0482 83.4759C37.2984 84.5019 33.4278 85.025 29.5371 85.025C23.9364 85.025 18.3558 84.3249 12.9281 82.9448C9.65703 82.112 6.9452 79.8307 5.56917 76.7447L1.06287 66.6497C-0.554567 63.0246 0.0570026 58.7878 2.64008 55.7702L10.6629 46.3875C11.54 45.3615 11.7814 43.9332 11.2865 42.6738C10.1841 39.8775 10.5905 36.715 12.3648 34.2889L13.3667 32.9209C14.8634 30.8729 15.9377 28.5514 16.5291 26.085L17.5632 21.7758L19.0881 15.6762C19.6514 13.4271 21.1883 11.5441 23.2846 10.5463H23.2805Z" fill="#FF57CF" stroke="black" stroke-width="2" stroke-linecap="round" stroke-linejoin="round"/>
<path d="M37.0801 12.2891H49.4885C55.1898 12.2891 59.8128 16.912 59.8128 22.6133V35.5046C59.8128 38.1037 61.4584 40.4172 63.9127 41.2702L76.8562 45.7725C77.9989 46.1708 79.2583 46.0059 80.2641 45.3339" stroke="black" stroke-width="2" stroke-linecap="round" stroke-linejoin="round"/>
<path d="M71.856 49.2322L61.1254 45.5548C59.5763 45.0237 57.8744 45.2249 56.4903 46.0979C55.585 46.6693 54.8688 47.4981 54.4343 48.4758L53.2514 51.1354C52.9215 51.8797 52.3421 52.4872 51.6098 52.8534C50.1976 53.5575 49.3044 55.0019 49.3044 56.5791V62.2241C49.3044 63.8455 48.4876 65.3825 47.0995 66.2154C46.8219 66.3843 46.5483 66.5091 46.2988 66.5533" stroke="black" stroke-width="2" stroke-linecap="round" stroke-linejoin="round"/>
<path d="M65.8432 47.1721L61.9968 53.4085C60.9909 55.0421 60.4558 56.925 60.4558 58.8442C60.4558 60.514 59.2608 61.9463 57.6192 62.2441L54.678 62.7832C52.6784 63.1494 50.739 63.8012 48.9245 64.7225L48.4336 64.972" stroke="black" stroke-width="2" stroke-linecap="round" stroke-linejoin="round"/>
<path d="M41.3688 18.8266L43.3765 17.1971C44.2979 16.4487 45.4526 16.0383 46.6396 16.0383C48.43 16.0383 50.0957 16.9637 51.0372 18.4886L52.3811 20.6573C54.0589 23.3691 54.1433 26.773 52.5983 29.5653L51.7252 31.1425C50.6952 33.0094 48.7277 34.1681 46.5993 34.1681H42.7287C40.0209 34.1681 37.8281 31.9753 37.8281 29.2675C37.8281 27.465 38.0615 25.6705 38.5282 23.9324L39.1156 21.7275" stroke="black" stroke-width="2" stroke-linecap="round" stroke-linejoin="round"/>
<path d="M41.8524 34.1647L41.5385 32.4065C41.3736 31.4891 41.2891 30.5597 41.2891 29.6262C41.2891 26.9064 41.9932 24.2348 43.337 21.8649L46.6403 16.0349" stroke="black" stroke-width="2" stroke-linecap="round" stroke-linejoin="round"/>
<path d="M24.3178 19.704L24.5873 18.9073C25.2432 16.968 27.0618 15.6604 29.1057 15.6604C31.1939 15.6604 32.7872 17.5233 32.4653 19.5873L31.391 26.4675C31.0571 28.5999 29.3672 30.2616 27.2308 30.5634L25.6495 30.7847C24.1769 30.9899 22.6842 30.5996 21.5013 29.6983C20.6242 29.0304 20.3748 27.8153 20.9219 26.8578L21.8514 25.2202C22.8492 23.466 23.674 21.6152 24.3178 19.704Z" stroke="black" stroke-width="2" stroke-linecap="round" stroke-linejoin="round"/>
<path d="M24.4766 30.8373V29.2481C24.4766 27.4657 24.9715 25.7195 25.9089 24.2026C26.774 22.8065 27.4459 21.2977 27.9086 19.7245L29.1076 15.6648" stroke="black" stroke-width="2" stroke-linecap="round" stroke-linejoin="round"/>
<path d="M17.7923 38.9164L17.4664 41.769C17.3135 43.1209 16.9233 44.4366 16.3117 45.6557C15.5995 47.0841 15.7806 48.7981 16.7784 50.0413C17.5107 50.9547 18.7861 51.2202 19.8202 50.673L22.2021 49.4137C24.0569 48.4319 25.6019 46.9634 26.6762 45.1608L27.7384 43.3784C28.5712 41.9823 28.4948 40.224 27.5452 38.9084C27.0544 38.2284 26.3664 37.7134 25.5737 37.4398L24.4713 37.0535C23.1073 36.5788 21.6629 36.4017 20.2265 36.5345C18.9551 36.6512 17.9372 37.645 17.7963 38.9164H17.7923Z" stroke="black" stroke-width="2" stroke-linecap="round" stroke-linejoin="round"/>
<path d="M23.1046 36.6873L21.6884 39.206C20.9963 40.4371 20.6342 41.8252 20.6342 43.2335C20.6342 44.2313 20.3526 45.209 19.8174 46.0539C19.1817 47.0638 18.8438 48.2306 18.8438 49.4216V50.9585" stroke="black" stroke-width="2" stroke-linecap="round" stroke-linejoin="round"/>
<path d="M2.64062 55.7665C3.94423 55.328 5.37659 55.4607 6.57559 56.1286L8.14877 57.0058" stroke="black" stroke-width="2" stroke-linecap="round" stroke-linejoin="round"/>
<path d="M0.800781 58.9045C0.800781 58.9045 3.83851 65.1168 17.9609 65.3663" stroke="black" stroke-width="2" stroke-linecap="round" stroke-linejoin="round"/>
<path d="M4.56641 62.333L7.72886 57.9434C8.5577 56.7887 10.1309 56.4547 11.358 57.1709L13.6152 58.4021" stroke="black" stroke-width="2" stroke-linecap="round" stroke-linejoin="round"/>
<path d="M15.8835 58.9047L14.8978 58.5788C13.3769 58.0758 11.7112 58.6431 10.8139 59.9669L8.15039 63.8978" stroke="black" stroke-width="2" stroke-linecap="round" stroke-linejoin="round"/>
<path d="M12.707 63.898L15.3947 59.7136C16.0666 58.6675 17.322 58.1605 18.533 58.4462C19.6958 58.7198 20.5729 59.6734 20.754 60.8563" stroke="black" stroke-width="2" stroke-linecap="round" stroke-linejoin="round"/>
<path d="M5.83789 62.9924L6.43337 68.1304C6.58223 69.4179 7.72893 70.3474 9.02047 70.2267L10.1591 70.122" stroke="black" stroke-width="2" stroke-linecap="round" stroke-linejoin="round"/>
<path d="M22.8024 71.3857L22.8989 72.4198C23.0036 73.5584 22.0218 74.4999 20.8872 74.339C19.821 74.1861 18.5093 73.9809 17.2781 73.7355C15.3992 73.3613 14.4617 71.2329 15.4595 69.5953L16.7792 67.4307" stroke="black" stroke-width="2" stroke-linecap="round" stroke-linejoin="round"/>
<path d="M9.09375 64.1877C9.09375 66.453 9.58059 68.694 10.5261 70.7541L10.5382 70.7782C11.3268 72.5003 13.7328 72.625 14.6904 70.9874L17.9615 65.4149L20.5888 61.2023C21.3292 60.0194 23.1598 60.6591 22.9989 62.0472L22.9305 64.1475" stroke="black" stroke-width="2" stroke-linecap="round" stroke-linejoin="round"/>
<path d="M22.666 65.8089C23 62.0429 24.545 60.9002 26.5044 61.1416C26.5245 61.1416 26.5447 61.1457 26.5688 61.1497C26.5929 61.1537 26.6131 61.1537 26.6332 61.1577C28.3834 61.4072 29.4737 63.2017 28.9105 64.8795C28.2587 66.8148 27.0999 69.6392 25.1566 72.5844C24.7059 73.2644 23.7322 73.3408 23.185 72.7333C23 72.5281 22.8873 72.2666 22.8672 71.993L22.67 69.43" stroke="black" stroke-width="2" stroke-linecap="round" stroke-linejoin="round"/>
<path d="M28.5293 62.3325C28.5293 62.3325 29.3622 61.9019 30.4767 61.6686C32.1907 61.3105 33.6914 62.8636 33.2931 64.5655L32.5166 67.8688" stroke="black" stroke-width="2" stroke-linecap="round" stroke-linejoin="round"/>
<path d="M27.127 69.1565L26.8534 71.5143C26.6562 73.2162 27.988 74.7089 29.698 74.7089C31.2953 74.7089 32.5828 73.4053 32.5627 71.812L32.5144 67.873" stroke="black" stroke-width="2" stroke-linecap="round" stroke-linejoin="round"/>
<path d="M33.2949 64.5656L33.6409 62.9965C33.8703 61.9544 34.8641 61.2624 35.9223 61.4112C36.9925 61.5601 37.765 62.5177 37.6845 63.596L37.4311 66.9073" stroke="black" stroke-width="2" stroke-linecap="round" stroke-linejoin="round"/>
<path d="M37.6816 63.5919L37.7299 62.7831C37.7862 61.8417 38.5668 61.1094 39.5083 61.1094C40.49 61.1094 41.2907 61.906 41.2907 62.8918V66.0985" stroke="black" stroke-width="2" stroke-linecap="round" stroke-linejoin="round"/>
<path d="M41.2894 62.8925V62.8402C41.2894 61.7498 42.1705 60.8687 43.2609 60.8687C44.3512 60.8687 45.2324 61.7498 45.2324 62.8402V64.9726C36.4652 67.8695 27.7383 67.8695 27.7383 67.8695" stroke="black" stroke-width="2" stroke-linecap="round" stroke-linejoin="round"/>
<path d="M32.5664 71.8086C32.5664 73.0116 33.5401 73.9853 34.7431 73.9853C36.3686 73.9853 37.6843 72.6696 37.6843 71.0441V66.908" stroke="black" stroke-width="2" stroke-linecap="round" stroke-linejoin="round"/>
<path d="M37.6816 68.6741V70.183C37.6816 71.2693 38.5628 72.1464 39.6451 72.1464C40.7314 72.1464 41.6086 71.2653 41.6086 70.183V66.0991" stroke="black" stroke-width="2" stroke-linecap="round" stroke-linejoin="round"/>
<path d="M41.6113 68.3519V69.0842C41.6113 70.082 42.42 70.8947 43.4219 70.8947C44.4197 70.8947 45.2325 70.086 45.2325 69.0842V64.9722" stroke="black" stroke-width="2" stroke-linecap="round" stroke-linejoin="round"/>
</g>
<circle cx="44.2132" cy="44.9859" r="43.098" stroke="black" stroke-width="2"/>
</svg>